<?xml version="1.0" encoding="UTF-8"?>
<svg id="Layer_2" data-name="Layer 2" xmlns="http://www.w3.org/2000/svg" xmlns:xlink="http://www.w3.org/1999/xlink" viewBox="0 0 239.32 111">
  <defs>
    <style>
      .cls-1 {
        fill: none;
      }

      .cls-1, .cls-2, .cls-3 {
        stroke-width: 0px;
      }

      .cls-2 {
        fill: #cebead;
      }

      .cls-4 {
        clip-path: url(#clippath);
      }

      .cls-3 {
        fill: #433621;
      }
    </style>
    <clipPath id="clippath">
      <path class="cls-1" d="M26.06-2v57.05h34.04V-2H26.06ZM49.75,29.84c-.2-.06-.4-.12-.61-.18-.5-.14-1.02-.29-1.53-.47,1.88-1.19,4.02-2.06,6.37-2.57.34.19.66.41.96.66-1.99.52-3.73,1.39-5.2,2.56Z"/>
    </clipPath>
  </defs>
  <g id="Layer_10" data-name="Layer 10">
    <g>
      <path class="cls-2" d="M29.04,45.65c1.96,3.58,1.52,7.6.87,11.47s-1.79,7.55-1.93,11.44c-.07,1.78.07,3.65.45,5.39.47,2.2,1.72,3.94,2.75,5.9,1.15,2.19,1.15,4.21.36,6.53s-2.09,4.58-2.96,6.94c-.97,2.62-1.47,5.44-1.55,8.23-.04,1.46.06,2.91.26,4.36.1.72.16,1.51.39,2.21s.81,1.28,1.28,1.82l1.07-2.59c-.35.02-.68.06-1.02.13l.87.11c-1.96-.88-3.7-2.09-5.1-3.73s-2.39-3.65-3.53-5.49c-2.12-3.44-4.99-6.75-8.56-8.74-.95-.53-2.16-.93-2.82-1.87s-.43-2.1-.23-3.11c.46-2.28.85-4.22.24-6.53-.65-2.44-1.31-4.7-1.56-7.24s-.42-5.01-.4-7.52c0-.57-.93-.73-1.02-.14-.67,4.05,1.75,7.36,4.81,9.71,1.83,1.4,3.78,2.61,5.49,4.17,1.54,1.4,2.89,2.98,4.05,4.71,2.43,3.65,3.97,7.77,4.91,12.03.56,2.52.9,5.08,1.12,7.66s.59,5.08.78,7.62l1.4-1.06c-3.47-.93-5.17-4.82-6.69-7.74-1.81-3.48-4.15-6.3-7.28-8.66-.75-.57-1.53-1.1-2.3-1.63-.89-.62-1.98-1.1-2.75-1.86-1.43-1.43-.39-4.25-.25-6.03.1-1.24.2-2.48.28-3.72.07-1.02-.28-1.98-.58-2.95-.69-2.17-1.29-4.37-2.06-6.52-.29-.8-1.56-.47-1.29.36.38,1.15.76,2.32.99,3.51.25,1.26.2,2.57.14,3.85s.27,2.36.4,3.64c.13,1.2.07,2.45.01,3.64-.08,1.74-.31,3.68.94,5.09.65.73,1.53,1.18,2.35,1.68.98.6,1.91,1.26,2.77,2.03,1.62,1.44,3.01,3.09,4.41,4.73,1.3,1.52,2.45,3.17,3.37,4.95,1.63,3.15,3.4,6.52,6.95,7.75.68.23,1.4-.38,1.4-1.06-.04-2.57.06-5.06-.24-7.62-.27-2.33-.63-4.64-1.13-6.93-.94-4.26-2.44-8.44-4.71-12.18-2.1-3.47-4.84-6.44-8.24-8.67s-9.21-5.24-8.04-10.21l-1.02-.14c-.16,2.03-.25,4.09-.02,6.12s.62,3.82,1.02,5.72c.44,2.1,1.07,4.45.75,6.6-.24,1.65-.94,3.26-.78,4.96.15,1.52,1.05,2.55,2.27,3.36,1.5,1,3.05,1.94,4.44,3.1,2.97,2.47,4.91,5.47,6.74,8.82.93,1.7,1.98,3.32,3.38,4.67.63.6,1.31,1.15,2.03,1.65.79.55,1.6.87,2.25,1.57.73.79,2.33.45,2.53-.67.1-.55.3-1.15.3-1.71,0-.69-.27-1.42-.37-2.1-.18-1.22-.23-2.46-.21-3.69.05-2.51.54-4.98,1.41-7.34,1.68-4.54,4.69-9.21,2.73-14.19-.85-2.16-2.4-3.91-3.7-5.8-1.14-1.67-1.7-3.38-1.77-5.39-.15-4.05.93-8.08,1.66-12.04s.84-8.4-1.27-12.1c-.46-.8-1.67-.09-1.23.72h0Z"/>
      <path class="cls-2" d="M29.64,12.05c-1.03-1.96-2.03-3.91-3.2-5.79-.76-1.22-1.36-2.69-2.6-3.5s-2.76-1.29-4.16-.95c-1.81.44-2.87,1.64-3.85,3.16s-1.88,3.01-2.73,4.57c-.37.68-.68,1.34-1.18,1.92-.61.71-1.29,1.51-1.77,2.33-1.72,2.97-2.7,6.19-5.07,8.77-.86.94-1.33,1.73-1.43,3.02-.06.81-.15,1.05-.78,1.85-1.04,1.3-1.87,2.61-2.39,4.2s-.62,3.13-.25,4.78.97,3.21,1.26,4.9c.13.75.52,1.42.66,2.15.19.93.41,1.52.96,2.32.96,1.41,2.21,2.59,3.55,3.63,2.77,2.17,5.82,3.93,9.23,4.87,4.08,1.13,8.53,1.42,11.5-2.14,1.29-1.55,1.81-3.21,2.4-5.09.34-1.09.65-2.16.88-3.28.24-1.19-.03-2.25.12-3.43.08-.64-1-.78-1.13-.15-.19.92-.71,1.65-.94,2.57-.18.74-.34,1.48-.55,2.21-.51,1.7-1.41,3-2.65,4.26-.78.79-1.75,1.54-2.8,1.94-1.64.62-3.45.15-5.08-.28-2.75-.73-5.55-1.62-8-3.1-1.23-.74-2.33-1.7-3.31-2.74-.44-.47-.89-.95-1.3-1.45-.55-.66-1.28-1.1-1.72-1.83-.38-.64-.9-1.3-1.17-2-.25-.65-.26-1.41-.25-2.1.03-1.47.39-3.06.71-4.49.29-1.31.81-2.53,1.53-3.67.2-.32.4-.63.67-.9,0,0,.95-.65.57-.52.85-.28,1.71-.02,2.55-.51,1.32-.77,2.47-2.55,3.31-3.78s1.51-2.46,2.13-3.77c.66-1.38,1.39-2.86,1.73-4.37.15-.64.18-1.34.28-1.99.06-.43,0-.81.05-1.22.07-.48.38-1.03.55-1.49,1.19-3.05,3.16-5.39,5.77-7.34,1.94-1.45,3.48,1.85,4.12,3.25.9,1.93,1.97,3.76,3.02,5.61.28.49,1.01.06.75-.44h0Z"/>
      <g>
        <path class="cls-3" d="M68.67,91.35c0-11.14,6.71-19.52,15.63-19.52s15.59,8.63,15.59,19.47-6.51,19.57-15.59,19.57-15.63-8.38-15.63-19.52ZM94.84,91.55c0-11.39-2.92-19.12-10.55-19.12s-10.63,7.48-10.63,18.92,2.96,18.92,10.63,18.92,10.55-7.28,10.55-18.72Z"/>
        <path class="cls-3" d="M126.21,72.18h27.5v.6h-27.5v-.6ZM137.91,72.18h4.17v38.34h-4.17v-38.34Z"/>
        <path class="cls-3" d="M152.09,72.18c2.04,0,2.69-.04,4.32,0,3.26,23.73,20.64,19.32,22.86,34.57.07,3.58.4,4.17.4,4.17,0,0-3.74,0-4.21,0,.66-21.02-18.44-14.63-23.37-38.74ZM153.04,72.18h.6v38.34h-.6v-38.34ZM179.07,72.58h.6v38.34h-.6v-38.34Z"/>
        <path class="cls-3" d="M184.02,72.58h4.17v38.34h-4.17v-38.34ZM185.51,72.58h16.14v.6h-16.07l-.07-.6ZM187.7,99.89c3.33-10.98,9.62-11,9.62-11v2s-6.09-1.66-9.46,10.16c-.04.14-.2-1.02-.16-1.16ZM185.58,110.32h20.43v.6h-20.43v-.6Z"/>
        <path class="cls-3" d="M108.51,97.34c6.63-13.73,15.23-1.95,15.71-1l7.18,14.01h-4.42l-6.16-13.84c-2.31-4.57-8.87-9.39-13.42,4.59M103.12,71.98h10.45c6.08,0,11.27,2.86,11.1,8.64s-9.72,9.51-10.98,10.59c-4.58,3.92-5.35,6.31-6.27,10.06-.05,2.29-.1,9.12-.1,9.12l-4.2-.03v-38.37ZM111.93,91.27c4.39-4.22,9.44-6.14,9.27-11.25-.16-4.97-2.96-7.43-8.58-7.43h-5.32s.04,22.1.1,27.7c.05-3.02,2.52-7.07,4.54-9.01Z"/>
        <path class="cls-3" d="M55.17,89.62c3.25-1.83,8.07-4.9,8.19-8.98.18-5.77-5.02-8.63-11.1-8.63h-10.44v38.37l4.19.02h0s4.88-.05,4.88-.05c9.74,0,16.13-4.12,15.91-12.24-.26-9.51-7.42-10.19-11.63-8.49ZM45.98,72.6h5.32c5.63,0,8.42,2.46,8.59,7.43.17,5.11-4.88,7.03-9.27,11.25-2.02,1.94-4.5,5.99-4.55,9.01-.06-5.59-.1-27.7-.1-27.7ZM51.28,109.75h-5.27c.02-1.76.06-6.61.1-8.47.72-2.93,1.34-5.03,3.78-7.69,0,0,.02-.02.04-.03,5.35-5.15,13.15-3.99,12.85,5.7-.17,5.6-4.62,10.49-11.49,10.49Z"/>
        <path class="cls-3" d="M207.59,72.51h4.34c1.4,16.38,9.04,12.29,11.51,25.87.09.51-.28.62-.28.62l11.88-26.49h4.28v38.49h-4.72c0-19.31.06-36.61.06-36.61l.28-.46s-10.78,24.29-11.62,25.81c-4.45-14.64-11.31-9.98-15.55-26.85-.03-.13.42,1.15.42,1.15v36.97h-.6v-38.49Z"/>
      </g>
      <g>
        <g>
          <path class="cls-2" d="M29.31,11.4c-.65,4.35-1.33,8.69-1.07,13.11.13,2.28.25,4.55.29,6.84.02,1.14.03,2.29.01,3.44-.01,1.02-.19,1.95.3,2.87.28.52,1.17.56,1.44,0,.45-.95.25-1.86.2-2.87-.06-1.14-.1-2.29-.13-3.44-.05-2.2-.04-4.39,0-6.6.1-4.42-.53-8.82-.09-13.22.06-.55-.88-.68-.97-.13h0Z"/>
          <path class="cls-2" d="M29.96,9.02s.02-.02,0-.02-.02.02,0,.02h0Z"/>
          <path class="cls-2" d="M29.92,9.25s.02-.02,0-.02-.02.02,0,.02h0Z"/>
          <path class="cls-2" d="M29.96,9.02s.02-.02,0-.02-.02.02,0,.02h0Z"/>
          <path class="cls-2" d="M29.99,8.79s.02-.02,0-.02-.02.02,0,.02h0Z"/>
          <path class="cls-2" d="M30.51,11.96c.07-.95.7-1.75,1.35-2.4.38-.38.77-.74,1.15-1.12.25-.25.46-.5.65-.8.16-.25.38-.5.41-.8.01-.15-.13-.27-.27-.27-.3,0-.63.24-.89.38-.33.17-.6.4-.89.64-.45.38-.87.77-1.26,1.21-.78.89-1.41,1.93-1.38,3.15.02.73,1.08.72,1.12,0h0Z"/>
          <path class="cls-2" d="M30.21,10.37c-2.44,3.77-2.14,9.03-2.15,13.35-.02,4.84.06,9.78.58,14.6.12,1.13.25,2.34.66,3.41.35.92.86,1.79,1.34,2.64,1.15,2.06,2.25,4.17,3.48,6.18.67,1.08,1.7,2.41,3.15,1.91,1.21-.41,1.77-1.84,1.68-3.02-.02-.26-.35-.29-.44-.06-.24.61-.34,1.6-.9,2.01-.87.64-1.69-.68-2.04-1.31-.91-1.6-1.71-3.28-2.56-4.91s-1.93-3.39-2.54-5.19-.49-4.08-.63-6.01c-.29-3.9-.64-7.8-.53-11.72.05-1.87.17-3.74.28-5.6.12-1.97.23-4.19,1.15-5.98.18-.35-.31-.64-.53-.31h0Z"/>
          <path class="cls-2" d="M45.13,25.64c1.12,3.06,4.24,2.65,6.69,3.9,1.44.74,1.77,2.52,2.09,3.97.35,1.59.66,3.44.39,5.06-.22,1.31-1.2,1.88-2.09,2.74-.98.94-1.81,1.71-3.01,2.35-1.03.55-2.1.82-3.25.81-.69,0-1.34-.16-2.01-.21-1.3-.09-2.37.47-3.06,1.59l1.27-.98c-1.64.5-3.57,1.68-4.24,3.33-.29.71-.43,1.56-.41,2.32.02.41.15.96-.22,1.27s-1.11-.04-1.4-.32-.49-.58-.7-.91c-.62-.95-1.15-1.98-1.74-2.95-.66-1.1-1.17-2.3-1.6-3.51-.85-2.38-1.28-4.81-1.27-7.33,0-1.3-2.13-1.25-1.99,0,.55,5.23,2.06,10.82,5.56,14.86,1.05,1.21,2.85,2.12,4.08.6.54-.67.94-1.49,1.18-2.31.37-1.28.98-1.71,2.23-1.17l-.98-1.27c.88,2.4,3.35,2.67,5.63,2.59,1.91-.07,3.72-.58,5.42-1.42,1.47-.73,2.78-1.77,3.81-3.04,1.23-1.53,1.57-3.11,2-4.98s.72-3.53.44-5.4-1.24-3.86-2.25-5.51c-.94-1.54-2.22-2.56-4.01-2.9-1.38-.26-3.84-.16-4.43-1.81-.49-1.35-2.67-.76-2.17.6h0Z"/>
          <path class="cls-2" d="M29.52,18.03c-.08-5.99,3.72-12.11,8.71-15.3,1.11-.71,2.82-1.55,3.97-.49.98.9.37,2,.23,3.14-.17,1.43.16,2.86,1.46,3.71s3.27.86,4.6.05c.32-.19.61-.46.91-.67.37-.27-.29-.24-.31.3,0,.13.97,1.2,1.08,1.38.69,1.14,1.5,2.44,1.65,3.73.08.66.31,1.34.12,2s-.67,1.29-1.04,1.87c-.84,1.35-1.9,2.39-2.99,3.53s-1.96,1.89-3.33,2.55c-1.23.59-2.41,1.2-3.61,1.86-2.05,1.12-3.93,2.68-5.47,4.43-1.74,1.96-3.31,4.35-4.01,6.91s-1.29,6.01-.43,8.59c.3.88,1.62.53,1.4-.39-.8-3.26,0-6.07,1.27-9.08,1.06-2.54,2.66-4.82,4.68-6.69,1-.92,2.17-1.74,3.37-2.37,1.43-.74,3.1-.87,4.56-1.55,2.62-1.22,4.55-4.07,6.01-6.47.72-1.19.98-2.58,1.26-3.93.14-.67.15-1.26-.04-1.93-.22-.77-.29-1.56-.55-2.31-.39-1.13-.99-2.22-1.74-3.15-.32-.4-.72-.67-1.06-1.03-.37-.38-.51-.97-1.01-1.43-.77-.7-1.68-.99-2.7-1.04-.35-.02-1.19-.08-1.22.04l.68.62c-.02-.17-.03-.34-.04-.51-.01-.23-.02-.46-.04-.68-.08-.81-.2-1.63-.65-2.32-1.56-2.4-4.92-1.23-6.78.09-2.62,1.87-5.11,3.94-6.97,6.6-2.02,2.88-2.8,6.47-2.39,9.96.03.28.45.29.45,0h0Z"/>
          <path class="cls-2" d="M29.95,17.94c.21-1.92.96-3.52,1.92-5.18.43-.74.88-1.47,1.33-2.2.48-.8.77-1.66,1.12-2.52.67-1.64,1.98-2.96,3.26-4.15.76-.7,1.45-1.33,2.42-1.72,1.04-.42,2-.46,3.08-.21.34.08.61-.45.25-.6-1.92-.82-3.76.09-5.48.94-1.91.94-3.23,2.64-4.75,4.06-.77.73-1.58,1.39-2.14,2.3s-.89,1.97-1.13,2.97c-.49,2.05-.59,4.21-.79,6.31-.05.57.83.56.89,0h0Z"/>
          <path class="cls-2" d="M31.27,11.21c-1.03,2.54-1.79,5.04-2.17,7.77s-.46,5.29-.39,7.97.13,5.32.49,7.93c.21,1.55.34,3.11.54,4.67.16,1.19.18,2.49.75,3.57.15.29.67.25.73-.1.21-1.18-.12-2.38-.28-3.55-.18-1.34-.37-2.68-.46-4.03-.2-2.74-.35-5.5-.31-8.25.08-5.2.22-10.79,1.83-15.78.15-.47-.55-.64-.72-.2h0Z"/>
          <path class="cls-2" d="M30.87,41.32c.95-3.57,2.54-6.96,4.75-9.92,1.12-1.51,2.39-2.98,4-3.99s3.47-1.1,5.16-1.83c2.79-1.2,4.79-3.26,6.35-5.82s2.31-5.92.94-8.56c-.24-.47-.94-.06-.71.41.88,1.83.17,3.97-.75,5.65-.71,1.31-1.45,2.57-2.35,3.75s-1.87,2.41-3.26,3.15c-1.48.79-3.16.96-4.62,1.8-2.5,1.44-4.43,3.79-6,6.16-1.83,2.77-3.1,5.83-3.85,9.07-.05.23.3.33.36.1h0Z"/>
        </g>
        <g>
          <path class="cls-3" d="M110.59,51.69c6.55-13.58,15.05-1.93,15.53-.99l7.1,13.85h-4.37l-6.09-13.68c-2.28-4.52-8.77-9.29-13.27,4.54M105.27,26.62h10.33c6.01,0,11.14,2.83,10.97,8.54-.17,5.7-9.61,9.41-10.85,10.47-4.53,3.88-5.29,6.24-6.2,9.94-.04,2.26-.1,9.01-.1,9.01l-4.15-.03V26.62ZM113.98,45.69c4.34-4.17,9.33-6.07,9.16-11.13-.16-4.91-2.93-7.35-8.49-7.35h-5.26s.04,21.85.1,27.38c.05-2.99,2.49-6.99,4.49-8.91Z"/>
          <path class="cls-3" d="M133.84,56.16c10.23-18.81,20.79-12.73,21.87-8.7.1.38-.16,2.52-.2,2.38-.87-3.25-11.28-12.68-21.67,7.52-.07.13-.07-1.06,0-1.19ZM39.07,45.39c0-11.17,8.19-19.31,19.81-19.31,8.39,0,14.3,5.16,14.3,12.96h-.6c0-7.05-5.21-12.31-13.3-12.31-10.62,0-15.84,8.49-15.84,18.56s5.41,18.56,15.94,18.56c6.95,0,12.76-4.02,14.84-9.58l.55.2c-2.53,6.65-9.13,10.18-15.98,10.18-11.27,0-19.71-8.19-19.71-19.26ZM73.38,56.76c-.08.12-.08-.47,0-.6M85.57,28.32l.45.4-11.31,25.91h-.64l11.5-26.31ZM73.34,56.16c10.23-18.81,20.79-12.73,21.87-8.7.1.38-.16,2.52-.2,2.38-.87-3.25-11.28-12.68-21.67,7.52-.07.13-.07-1.06,0-1.19ZM84.69,26.43h3.98c.11,0,.2.06.25.16l16.44,37.39c.08.18-.05.38-.25.38h-3.98c-.11,0-.2-.06-.25-.16l-16.44-37.39c-.08-.18.05-.38.25-.38Z"/>
          <path class="cls-3" d="M145.98,28.32l.45.4-15.54,35.64h-.64l15.73-36.04ZM144.69,26.43h4.57l16.68,37.93h-4.57l-16.68-37.93Z"/>
        </g>
        <g class="cls-4">
          <g>
            <path class="cls-2" d="M29.31,11.4c-.65,4.35-1.33,8.69-1.07,13.11.13,2.28.25,4.55.29,6.84.02,1.14.03,2.29.01,3.44-.01,1.02-.19,1.95.3,2.87.28.52,1.17.56,1.44,0,.45-.95.25-1.86.2-2.87-.06-1.14-.1-2.29-.13-3.44-.05-2.2-.04-4.39,0-6.6.1-4.42-.53-8.82-.09-13.22.06-.55-.88-.68-.97-.13h0Z"/>
            <path class="cls-2" d="M29.96,9.02s.02-.02,0-.02-.02.02,0,.02h0Z"/>
            <path class="cls-2" d="M29.92,9.25s.02-.02,0-.02-.02.02,0,.02h0Z"/>
            <path class="cls-2" d="M29.96,9.02s.02-.02,0-.02-.02.02,0,.02h0Z"/>
            <path class="cls-2" d="M29.99,8.79s.02-.02,0-.02-.02.02,0,.02h0Z"/>
            <path class="cls-2" d="M30.51,11.96c.07-.95.7-1.75,1.35-2.4.38-.38.77-.74,1.15-1.12.25-.25.46-.5.65-.8.16-.25.38-.5.41-.8.01-.15-.13-.27-.27-.27-.3,0-.63.24-.89.38-.33.17-.6.4-.89.64-.45.38-.87.77-1.26,1.21-.78.89-1.41,1.93-1.38,3.15.02.73,1.08.72,1.12,0h0Z"/>
            <path class="cls-2" d="M30.21,10.37c-2.44,3.77-2.14,9.03-2.15,13.35-.02,4.84.06,9.78.58,14.6.12,1.13.25,2.34.66,3.41.35.92.86,1.79,1.34,2.64,1.15,2.06,2.25,4.17,3.48,6.18.67,1.08,1.7,2.41,3.15,1.91,1.21-.41,1.77-1.84,1.68-3.02-.02-.26-.35-.29-.44-.06-.24.61-.34,1.6-.9,2.01-.87.64-1.69-.68-2.04-1.31-.91-1.6-1.71-3.28-2.56-4.91s-1.93-3.39-2.54-5.19-.49-4.08-.63-6.01c-.29-3.9-.64-7.8-.53-11.72.05-1.87.17-3.74.28-5.6.12-1.97.23-4.19,1.15-5.98.18-.35-.31-.64-.53-.31h0Z"/>
            <path class="cls-2" d="M45.13,25.64c1.12,3.06,4.24,2.65,6.69,3.9,1.44.74,1.77,2.52,2.09,3.97.35,1.59.66,3.44.39,5.06-.22,1.31-1.2,1.88-2.09,2.74-.98.94-1.81,1.71-3.01,2.35-1.03.55-2.1.82-3.25.81-.69,0-1.34-.16-2.01-.21-1.3-.09-2.37.47-3.06,1.59l1.27-.98c-1.64.5-3.57,1.68-4.24,3.33-.29.71-.43,1.56-.41,2.32.02.41.15.96-.22,1.27s-1.11-.04-1.4-.32-.49-.58-.7-.91c-.62-.95-1.15-1.98-1.74-2.95-.66-1.1-1.17-2.3-1.6-3.51-.85-2.38-1.28-4.81-1.27-7.33,0-1.3-2.13-1.25-1.99,0,.55,5.23,2.06,10.82,5.56,14.86,1.05,1.21,2.85,2.12,4.08.6.54-.67.94-1.49,1.18-2.31.37-1.28.98-1.71,2.23-1.17l-.98-1.27c.88,2.4,3.35,2.67,5.63,2.59,1.91-.07,3.72-.58,5.42-1.42,1.47-.73,2.78-1.77,3.81-3.04,1.23-1.53,1.57-3.11,2-4.98s.72-3.53.44-5.4-1.24-3.86-2.25-5.51c-.94-1.54-2.22-2.56-4.01-2.9-1.38-.26-3.84-.16-4.43-1.81-.49-1.35-2.67-.76-2.17.6h0Z"/>
            <path class="cls-2" d="M29.52,18.03c-.08-5.99,3.72-12.11,8.71-15.3,1.11-.71,2.82-1.55,3.97-.49.98.9.37,2,.23,3.14-.17,1.43.16,2.86,1.46,3.71s3.27.86,4.6.05c.32-.19.61-.46.91-.67.37-.27-.29-.24-.31.3,0,.13.97,1.2,1.08,1.38.69,1.14,1.5,2.44,1.65,3.73.08.66.31,1.34.12,2s-.67,1.29-1.04,1.87c-.84,1.35-1.9,2.39-2.99,3.53s-1.96,1.89-3.33,2.55c-1.23.59-2.41,1.2-3.61,1.86-2.05,1.12-3.93,2.68-5.47,4.43-1.74,1.96-3.31,4.35-4.01,6.91s-1.29,6.01-.43,8.59c.3.88,1.62.53,1.4-.39-.8-3.26,0-6.07,1.27-9.08,1.06-2.54,2.66-4.82,4.68-6.69,1-.92,2.17-1.74,3.37-2.37,1.43-.74,3.1-.87,4.56-1.55,2.62-1.22,4.55-4.07,6.01-6.47.72-1.19.98-2.58,1.26-3.93.14-.67.15-1.26-.04-1.93-.22-.77-.29-1.56-.55-2.31-.39-1.13-.99-2.22-1.74-3.15-.32-.4-.72-.67-1.06-1.03-.37-.38-.51-.97-1.01-1.43-.77-.7-1.68-.99-2.7-1.04-.35-.02-1.19-.08-1.22.04l.68.62c-.02-.17-.03-.34-.04-.51-.01-.23-.02-.46-.04-.68-.08-.81-.2-1.63-.65-2.32-1.56-2.4-4.92-1.23-6.78.09-2.62,1.87-5.11,3.94-6.97,6.6-2.02,2.88-2.8,6.47-2.39,9.96.03.28.45.29.45,0h0Z"/>
            <path class="cls-2" d="M29.95,17.94c.21-1.92.96-3.52,1.92-5.18.43-.74.88-1.47,1.33-2.2.48-.8.77-1.66,1.12-2.52.67-1.64,1.98-2.96,3.26-4.15.76-.7,1.45-1.33,2.42-1.72,1.04-.42,2-.46,3.08-.21.34.08.61-.45.25-.6-1.92-.82-3.76.09-5.48.94-1.91.94-3.23,2.64-4.75,4.06-.77.73-1.58,1.39-2.14,2.3s-.89,1.97-1.13,2.97c-.49,2.05-.59,4.21-.79,6.31-.05.57.83.56.89,0h0Z"/>
            <path class="cls-2" d="M31.27,11.21c-1.03,2.54-1.79,5.04-2.17,7.77s-.46,5.29-.39,7.97.13,5.32.49,7.93c.21,1.55.34,3.11.54,4.67.16,1.19.18,2.49.75,3.57.15.29.67.25.73-.1.21-1.18-.12-2.38-.28-3.55-.18-1.34-.37-2.68-.46-4.03-.2-2.74-.35-5.5-.31-8.25.08-5.2.22-10.79,1.83-15.78.15-.47-.55-.64-.72-.2h0Z"/>
            <path class="cls-2" d="M30.87,41.32c.95-3.57,2.54-6.96,4.75-9.92,1.12-1.51,2.39-2.98,4-3.99s3.47-1.1,5.16-1.83c2.79-1.2,4.79-3.26,6.35-5.82s2.31-5.92.94-8.56c-.24-.47-.94-.06-.71.41.88,1.83.17,3.97-.75,5.65-.71,1.31-1.45,2.57-2.35,3.75s-1.87,2.41-3.26,3.15c-1.48.79-3.16.96-4.62,1.8-2.5,1.44-4.43,3.79-6,6.16-1.83,2.77-3.1,5.83-3.85,9.07-.05.23.3.33.36.1h0Z"/>
          </g>
        </g>
      </g>
    </g>
  </g>
</svg>